<?xml version="1.0" standalone="no"?>
<!DOCTYPE svg PUBLIC "-//W3C//DTD SVG 20010904//EN"
 "http://www.w3.org/TR/2001/REC-SVG-20010904/DTD/svg10.dtd">
<svg version="1.0" xmlns="http://www.w3.org/2000/svg"
 width="895.000000pt" height="217.000000pt" viewBox="0 0 895.000000 217.000000"
 preserveAspectRatio="xMidYMid meet">

<g transform="translate(0.000000,217.000000) scale(0.100000,-0.100000)"
fill="#000000" stroke="none">
<path d="M3130 1100 l0 -1071 128 3 127 3 3 1068 2 1067 -130 0 -130 0 0
-1070z"/>
<path d="M6070 1100 l0 -1070 125 0 125 0 0 1070 0 1070 -125 0 -125 0 0
-1070z"/>
<path d="M6582 2018 l3 -153 128 -3 127 -3 0 156 0 155 -130 0 -131 0 3 -152z"/>
<path d="M7092 1103 l3 -1068 128 -3 127 -3 0 107 0 107 29 -41 c91 -125 263
-195 481 -196 146 -1 202 11 320 66 120 57 230 168 289 289 131 271 126 636
-11 904 -60 116 -174 228 -288 283 -116 56 -222 77 -360 69 -205 -12 -349 -76
-426 -191 l-34 -51 0 398 0 397 -130 0 -130 0 2 -1067z m921 250 c178 -84 279
-277 279 -533 0 -341 -139 -553 -386 -592 -153 -23 -310 25 -412 127 -56 56
-113 162 -135 255 -21 83 -18 328 4 410 37 139 104 239 200 303 82 54 134 67
267 64 106 -2 120 -5 183 -34z"/>
<path d="M588 1610 c-255 -46 -451 -216 -532 -461 -44 -131 -59 -247 -53 -404
9 -251 70 -410 211 -551 88 -88 172 -136 296 -170 92 -26 338 -26 430 0 118
32 189 73 272 156 104 104 149 194 192 392 l6 28 -130 0 -130 0 -6 -27 c-47
-216 -167 -328 -370 -348 -233 -23 -411 108 -480 355 -26 91 -26 346 -1 440
51 189 156 310 306 354 73 21 233 21 299 0 102 -33 195 -133 225 -241 l11 -43
133 0 c73 0 133 4 133 8 0 5 -9 44 -20 86 -53 208 -198 350 -417 407 -87 23
-296 34 -375 19z"/>
<path d="M2061 1609 c-150 -27 -270 -89 -382 -200 -63 -62 -85 -93 -123 -170
-70 -146 -90 -241 -90 -434 0 -173 11 -238 61 -364 81 -204 244 -352 453 -411
95 -27 269 -37 370 -21 300 47 506 237 586 541 27 104 38 252 25 364 -34 302
-165 513 -384 621 -51 25 -119 52 -152 61 -72 19 -289 27 -364 13z m350 -261
c128 -64 217 -177 260 -331 29 -105 32 -295 6 -401 -79 -319 -382 -478 -663
-347 -175 82 -284 287 -284 535 0 280 124 492 330 564 55 19 82 22 171 20 99
-3 110 -6 180 -40z"/>
<path d="M4152 1610 c-265 -48 -466 -221 -551 -475 -43 -129 -54 -218 -48
-375 6 -160 29 -255 88 -379 59 -121 178 -240 299 -299 111 -54 181 -72 315
-79 327 -16 575 117 706 381 65 133 89 243 89 422 1 271 -63 448 -220 605 -69
69 -101 94 -170 127 -47 23 -112 49 -145 58 -72 18 -289 27 -363 14z m340
-257 c144 -68 244 -207 279 -388 17 -89 12 -272 -10 -358 -54 -209 -195 -346
-389 -378 -176 -29 -360 54 -458 208 -60 92 -86 190 -91 338 -6 155 9 241 61
348 59 123 145 202 267 248 44 16 74 19 164 16 99 -2 116 -5 177 -34z"/>
<path d="M5855 1610 c-163 -33 -278 -122 -386 -300 l-34 -55 -3 163 -2 162
-120 0 -120 0 2 -772 3 -773 128 -3 127 -3 0 399 c0 424 7 510 50 625 64 171
217 275 430 293 l80 7 0 133 0 134 -57 -1 c-32 -1 -76 -5 -98 -9z"/>
<path d="M6582 808 l3 -773 128 -3 127 -3 0 776 0 775 -130 0 -130 0 2 -772z"/>
</g>
</svg>
